<?xml version="1.0" encoding="UTF-8" standalone="no"?>
<!-- Created with Inkscape (http://www.inkscape.org/) -->

<svg
   xmlns:dc="http://purl.org/dc/elements/1.1/"
   xmlns:cc="http://creativecommons.org/ns#"
   xmlns:rdf="http://www.w3.org/1999/02/22-rdf-syntax-ns#"
   xmlns:svg="http://www.w3.org/2000/svg"
   xmlns="http://www.w3.org/2000/svg"
   xmlns:sodipodi="http://sodipodi.sourceforge.net/DTD/sodipodi-0.dtd"
   xmlns:inkscape="http://www.inkscape.org/namespaces/inkscape"
   id="svg2"
   version="1.1"
   inkscape:version="0.92.3 (2405546, 2018-03-11)"
   xml:space="preserve"
   width="678.48749"
   height="240"
   viewBox="0 0 678.48749 240"
   sodipodi:docname="eurovelo-logo-transparent.svg"><metadata
     id="metadata8"><rdf:RDF><cc:Work
         rdf:about=""><dc:format>image/svg+xml</dc:format><dc:type
           rdf:resource="http://purl.org/dc/dcmitype/StillImage" /><dc:title></dc:title></cc:Work></rdf:RDF></metadata><defs
     id="defs6"><clipPath
       clipPathUnits="userSpaceOnUse"
       id="clipPath18"><path
         d="M 0,0 H 5427 V 2206 H 0 Z"
         id="path20"
         inkscape:connector-curvature="0" /></clipPath><linearGradient
       x1="0"
       y1="0"
       x2="1"
       y2="0"
       gradientUnits="userSpaceOnUse"
       gradientTransform="matrix(2261.04,2404.42,-2404.42,2261.04,1474.71,-214.06)"
       spreadMethod="pad"
       id="linearGradient22"><stop
         style="stop-opacity:1;stop-color:#252776"
         offset="0"
         id="stop24" /><stop
         style="stop-opacity:1;stop-color:#254aa5"
         offset="0.528091"
         id="stop26" /><stop
         style="stop-opacity:1;stop-color:#4763b8"
         offset="1"
         id="stop28" /></linearGradient><clipPath
       clipPathUnits="userSpaceOnUse"
       id="clipPath38"><path
         d="m 1183.57,1701.1 c -91.03,20.06 -194.527,47.91 -382.554,101.15 130.8,-141.29 226.734,-222.09 297.964,-279.9 -61.13,-112.19 -154.605,-270.12 -273.921,-489.98 82.246,84.43 161.406,163.63 229.531,230.27 68.54,66.93 125.92,121.33 174.88,163.99 72.39,-46.67 170.26,-100.67 307.29,-131.55 -66.51,95.37 -116.02,177.35 -149.44,244.34 88.11,39.74 168.34,59.1 297.97,79.98 -168.24,20 -264.61,34.08 -347.3,50.27 -20.82,78.52 -35.67,182.33 -56.37,379.28 -36.95,-159.77 -62.81,-246.29 -98.05,-347.85"
         id="path40"
         inkscape:connector-curvature="0" /></clipPath><clipPath
       clipPathUnits="userSpaceOnUse"
       id="clipPath44"><path
         d="M 319.609,1377.6 1101.33,2467.7 2166.74,1703.75 1384.98,613.559 Z"
         id="path46"
         inkscape:connector-curvature="0" /></clipPath><linearGradient
       x1="0"
       y1="0"
       x2="1"
       y2="0"
       gradientUnits="userSpaceOnUse"
       gradientTransform="matrix(354.535,494.4,-494.4,354.535,981.738,1176.25)"
       spreadMethod="pad"
       id="linearGradient48"><stop
         style="stop-opacity:1;stop-color:#f89d0e"
         offset="0"
         id="stop50" /><stop
         style="stop-opacity:1;stop-color:#fee802"
         offset="1"
         id="stop52" /></linearGradient></defs><sodipodi:namedview
     pagecolor="#ffffff"
     bordercolor="#666666"
     borderopacity="1"
     objecttolerance="10"
     gridtolerance="10"
     guidetolerance="10"
     inkscape:pageopacity="0"
     inkscape:pageshadow="2"
     inkscape:window-width="1366"
     inkscape:window-height="704"
     id="namedview4"
     showgrid="false"
     inkscape:zoom="1.0877135"
     inkscape:cx="326.92147"
     inkscape:cy="83.729917"
     inkscape:window-x="0"
     inkscape:window-y="27"
     inkscape:window-maximized="1"
     inkscape:current-layer="g12"
     inkscape:measure-start="160.409,276.124"
     inkscape:measure-end="160.25,256.125" /><g
     id="g10"
     inkscape:groupmode="layer"
     inkscape:label="ink_ext_XXXXXX"
     transform="matrix(1.25,0,0,-1.25,0,240.00001)"><g
       id="g12"
       transform="scale(0.1)"><path
         d="m 1058.3,814.97308 c -84.355,-128.419 -230.917,-181.161 -327.245,-117.798 -96.27,63.168 -105.977,218.688 -21.504,347.00802 84.277,128.3 230.742,181.23 327.149,117.97 96.23,-63.38 106,-218.77 21.6,-347.18002 m -24.28,369.02002 c -110.465,72.52 -278.454,12.03 -375.25,-135.31 -96.778,-147.19002 -85.665,-325.51002 24.863,-398.12902 110.469,-72.481 278.457,-11.852 375.277,135.219 96.81,147.36002 85.74,325.64002 -24.89,398.22002"
         style="fill:#ffffff;fill-opacity:1;fill-rule:nonzero;stroke:none"
         id="path32"
         inkscape:connector-curvature="0" /><g
         id="g34"
         transform="translate(0,-279.99692)"><g
           id="g36"
           clip-path="url(#clipPath38)"><g
             id="g42"
             clip-path="url(#clipPath44)"><path
               d="m 825,1032 v 3 h 1 v 1 h 1 v 2 h 1 v 2 h 1 v 2 h 1 v 2 h 1 v 2 h 1 v 1 h 1 v 2 h 1 v 2 h 1 v 2 h 1 v 2 h 1 v 2 h 1 v 1 h 1 v 2 h 1 v 2 h 1 v 2 h 1 v 2 h 1 v 2 h 1 v 1 h 1 v 2 h 1 v 2 h 1 v 2 h 1 v 2 h 1 v 2 h 1 v 1 h 1 v 2 h 1 v 2 h 1 v 2 h 1 v 2 h 1 v 2 h 1 v 1 h 1 v 2 h 1 v 2 h 1 v 2 h 1 v 2 h 1 v 1 h 1 v 2 h 1 v 2 h 1 v 2 h 1 v 2 h 1 v 2 h 1 v 1 h 1 v 2 h 1 v 2 h 1 v 2 h 1 v 2 h 1 v 1 h 1 v 2 h 1 v 2 h 1 v 2 h 1 v 2 h 1 v 1 h 1 v 2 h 1 v 2 h 1 v 2 h 1 v 2 h 1 v 2 h 1 v 1 h 1 v 2 h 1 v 2 h 1 v 2 h 1 v 2 h 1 v 1 h 1 v 2 h 1 v 2 h 1 v 2 h 1 v 2 h 1 v 1 h 1 v 2 h 1 v 2 h 1 v 2 h 1 v 2 h 1 v 1 h 1 v 2 h 1 v 2 h 1 v 2 h 1 v 2 h 1 v 1 h 1 v 2 h 1 v 2 h 1 v 2 h 1 v 2 h 1 v 1 h 1 v 2 h 1 v 2 h 1 v 2 h 1 v 1 h 1 v 2 h 1 v 2 h 1 v 2 h 1 v 2 h 1 v 1 h 1 v 2 h 1 v 2 h 1 v 2 h 1 v 2 h 1 v 1 h 1 v 2 h 1 v 2 h 1 v 2 h 1 v 1 h 1 v 2 h 1 v 2 h 1 v 2 h 1 v 2 h 1 v 1 h 1 v 2 h 1 v 2 h 1 v 2 h 1 v 2 h 1 v 1 h 1 v 2 h 1 v 2 h 1 v 2 h 1 v 1 h 1 v 2 h 1 v 2 h 1 v 2 h 1 v 2 h 1 v 1 h 1 v 2 h 1 v 2 h 1 v 2 h 1 v 1 h 1 v 2 h 1 v 2 h 1 v 2 h 1 v 1 h 1 v 2 h 1 v 2 h 1 v 2 h 1 v 2 h 1 v 1 h 1 v 2 h 1 v 2 h 1 v 2 h 1 v 1 h 1 v 2 h 1 v 2 h 1 v 2 h 1 v 1 h 1 v 2 h 1 v 2 h 1 v 2 h 1 v 2 h 1 v 1 h 1 v 2 h 1 v 2 h 1 v 2 h 1 v 1 h 1 v 2 h 1 v 2 h 1 v 2 h 1 v 1 h 1 v 2 h 1 v 2 h 1 v 2 h 1 v 2 h 1 v 1 h 1 v 2 h 1 v 2 h 1 v 2 h 1 v 1 h 1 v 2 h 1 v 2 h 1 v 2 h 1 v 1 h 1 v 2 h 1 v 2 h 1 v 2 h 1 v 1 h 1 v 2 h 1 v 2 h 1 v 2 h 1 v 1 h 1 v 2 h 1 v 2 h 1 v 2 h 1 v 2 h 1 v 1 h 1 v 2 h 1 v 2 h 1 v 2 h 1 v 1 h 1 v 2 h 1 v 2 h 1 v 2 h 1 v 1 h 1 v 2 h 1 v 2 h 1 v 2 h 1 v 1 h 1 v 2 h 1 v 2 h 1 v 2 h 1 v 1 h 1 v 2 h 1 v 2 h 1 v 2 h 1 v 2 h 1 v 1 h 1 v 2 h 1 v 2 h 1 v 2 h 1 v 1 h 1 v 2 h 1 v 2 h 1 v 2 h 1 v 1 h 1 v 2 h 1 v 2 h 1 v 2 h 1 v 1 h 1 v 2 h 1 v 2 h 1 v 2 h 1 v 2 h 1 v 1 h 1 v 2 h 1 v 2 h 1 v 2 h 1 v 1 h 1 v 2 h 1 v 2 h 1 v 2 h 1 v 1 h 1 v 2 h 1 v 2 h 1 v 2 h 1 v 2 h 1 v 1 h 1 v 2 h 1 v 2 h 1 v 2 h 1 v 1 h 1 v 2 h 1 v 2 h 1 v 2 h 1 v 2 h 1 v 1 h 1 v 2 h 1 v 2 h 1 v 2 h 1 v 1 h 1 v 2 h 1 v 2 h 1 v 2 h 1 v 2 h 1 v 1 h 1 v 2 h 1 v 2 h 1 v 2 h 1 v 2 h 1 v 1 h 1 v 2 h 1 v 2 h 1 v 2 h 1 v 2 h 1 v 1 h 1 v 2 h 1 v 2 h 1 v 2 h 1 v 2 h 1 v 1 h 1 v 2 h 1 v 2 h 1 v 2 h 1 v 2 h 1 v 2 h 1 v 1 h 1 v 2 h 1 v 2 h 1 v 2 h -2 v 1 h -1 v 1 h -1 v 1 h -1 v 1 h -1 v 1 h -2 v 1 h -1 v 1 h -1 v 1 h -1 v 1 h -2 v 1 h -1 v 1 h -1 v 1 h -1 v 1 h -1 v 1 h -2 v 1 h -1 v 1 h -1 v 1 h -1 v 1 h -2 v 1 h -1 v 1 h -1 v 1 h -1 v 1 h -1 v 1 h -2 v 1 h -1 v 1 h -1 v 1 h -1 v 1 h -1 v 1 h -2 v 1 h -1 v 1 h -1 v 1 h -1 v 1 h -1 v 1 h -2 v 1 h -1 v 1 h -1 v 1 h -1 v 1 h -1 v 1 h -2 v 1 h -1 v 1 h -1 v 1 h -1 v 1 h -1 v 1 h -1 v 1 h -2 v 1 h -1 v 1 h -1 v 1 h -1 v 1 h -1 v 1 h -2 v 1 h -1 v 1 h -1 v 1 h -1 v 1 h -1 v 1 h -1 v 1 h -2 v 1 h -1 v 1 h -1 v 1 h -1 v 1 h -1 v 1 h -1 v 1 h -1 v 1 h -2 v 1 h -1 v 1 h -1 v 1 h -1 v 1 h -1 v 1 h -1 v 1 h -2 v 1 h -1 v 1 h -1 v 1 h -1 v 1 h -1 v 1 h -1 v 1 h -1 v 1 h -2 v 1 h -1 v 1 h -1 v 1 h -1 v 1 h -1 v 1 h -1 v 1 h -1 v 1 h -1 v 1 h -2 v 1 h -1 v 1 h -1 v 1 h -1 v 1 h -1 v 1 h -1 v 1 h -1 v 1 h -1 v 1 h -2 v 1 h -1 v 1 h -1 v 1 h -1 v 1 h -1 v 1 h -1 v 1 h -1 v 1 h -1 v 1 h -1 v 1 h -1 v 1 h -2 v 1 h -1 v 1 h -1 v 1 h -1 v 1 h -1 v 1 h -1 v 1 h -1 v 1 h -1 v 1 h -1 v 1 h -1 v 1 h -1 v 1 h -2 v 1 h -1 v 1 h -1 v 1 h -1 v 1 h -1 v 1 h -1 v 1 h -1 v 1 h -1 v 1 h -1 v 1 h -1 v 1 h -1 v 1 h -1 v 1 h -2 v 1 h -1 v 1 h -1 v 1 h -1 v 1 h -1 v 1 h -1 v 1 h -1 v 1 h -1 v 1 h -1 v 1 h -1 v 1 h -1 v 1 h -1 v 1 h -1 v 1 h -1 v 1 h -1 v 1 h -1 v 1 h -1 v 1 h -2 v 1 h -1 v 1 h -1 v 1 h -1 v 1 h -1 v 1 h -1 v 1 h -1 v 1 h -1 v 1 h -1 v 1 h -1 v 1 h -1 v 1 h -1 v 1 h -1 v 1 h -1 v 1 h -1 v 1 h -1 v 1 h -1 v 1 h -1 v 1 h -1 v 1 h -1 v 1 h -1 v 1 h -1 v 1 h -1 v 1 h -1 v 1 h -1 v 1 h -1 v 1 h -1 v 1 h -1 v 1 h -1 v 1 h -2 v 1 h -1 v 1 h -1 v 1 h -1 v 1 h -1 v 1 h -1 v 1 h -1 v 1 h -1 v 1 h -1 v 1 h -1 v 1 h -1 v 1 h -1 v 1 h -1 v 1 h -1 v 1 h -1 v 1 h -1 v 1 h -1 v 1 h -1 v 1 h -1 v 1 h -1 v 1 h -1 v 1 h -1 v 1 h -1 v 1 h -1 v 1 h -1 v 1 h -1 v 1 h -1 v 1 h -1 v 1 h -1 v 1 h -1 v 1 h -1 v 1 h -1 v 1 h -1 v 1 h -1 v 1 h -1 v 1 h -1 v 1 h -1 v 1 h -1 v 1 h -1 v 1 h -1 v 2 h -1 v 1 h -1 v 1 h -1 v 1 h -1 v 1 h -1 v 1 h -1 v 1 h -1 v 1 h -1 v 1 h -1 v 1 h -1 v 1 h -1 v 1 h -1 v 1 h -1 v 1 h -1 v 1 h -1 v 1 h -1 v 1 h -1 v 1 h -1 v 1 h -1 v 1 h -1 v 1 h -1 v 1 h -1 v 1 h -1 v 1 h -1 v 1 h -1 v 1 h -1 v 1 h -1 v 1 h -1 v 1 h -1 v 2 h -1 v 1 h -1 v 1 h -1 v 1 h -1 v 1 h -1 v 1 h -1 v 1 h -1 v 1 h -1 v 1 h -1 v 1 h -1 v 1 h -1 v 1 h -1 v 1 h -1 v 1 h -1 v 1 h -1 v 1 h -1 v 1 h -1 v 1 h -1 v 2 h -1 v 1 h -1 v 1 h -1 v 1 h -1 v 1 h -1 v 1 h -1 v 1 h -1 v 1 h -1 v 1 h -1 v 1 h -1 v 1 h -1 v 1 h -1 v 1 h -1 v 1 h -1 v 1 h -1 v 2 h -1 v 1 h -1 v 1 h -1 v 2 h 1 v -1 h 4 v -1 h 3 v -1 h 4 v -1 h 4 v -1 h 3 v -1 h 4 v -1 h 3 v -1 h 4 v -1 h 3 v -1 h 4 v -1 h 3 v -1 h 4 v -1 h 3 v -1 h 4 v -1 h 4 v -1 h 3 v -1 h 4 v -1 h 3 v -1 h 4 v -1 h 3 v -1 h 4 v -1 h 3 v -1 h 4 v -1 h 4 v -1 h 3 v -1 h 4 v -1 h 3 v -1 h 4 v -1 h 4 v -1 h 3 v -1 h 4 v -1 h 3 v -1 h 4 v -1 h 4 v -1 h 3 v -1 h 4 v -1 h 3 v -1 h 4 v -1 h 4 v -1 h 3 v -1 h 4 v -1 h 3 v -1 h 4 v -1 h 4 v -1 h 3 v -1 h 4 v -1 h 4 v -1 h 3 v -1 h 4 v -1 h 4 v -1 h 3 v -1 h 4 v -1 h 4 v -1 h 3 v -1 h 4 v -1 h 4 v -1 h 4 v -1 h 3 v -1 h 4 v -1 h 4 v -1 h 4 v -1 h 3 v -1 h 4 v -1 h 4 v -1 h 4 v -1 h 3 v -1 h 4 v -1 h 4 v -1 h 4 v -1 h 4 v -1 h 4 v -1 h 3 v -1 h 4 v -1 h 4 v -1 h 4 v -1 h 4 v -1 h 4 v -1 h 4 v -1 h 4 v -1 h 4 v -1 h 4 v -1 h 4 v -1 h 4 v -1 h 4 v -1 h 4 v -1 h 4 v -1 h 4 v -1 h 4 v -1 h 4 v -1 h 5 v -1 h 4 v -1 h 4 v -1 h 4 v -1 h 5 v -1 h 4 v -1 h 4 v -1 h 5 v -1 h 4 v -1 h 5 v -1 h 4 v -1 h 3 v 1 h 1 v 3 h 1 v 3 h 1 v 3 h 1 v 3 h 1 v 2 h 1 v 3 h 1 v 3 h 1 v 3 h 1 v 3 h 1 v 3 h 1 v 3 h 1 v 3 h 1 v 3 h 1 v 3 h 1 v 3 h 1 v 3 h 1 v 3 h 1 v 3 h 1 v 3 h 1 v 3 h 1 v 3 h 1 v 4 h 1 v 3 h 1 v 3 h 1 v 3 h 1 v 3 h 1 v 3 h 1 v 3 h 1 v 4 h 1 v 3 h 1 v 3 h 1 v 3 h 1 v 3 h 1 v 4 h 1 v 3 h 1 v 3 h 1 v 3 h 1 v 4 h 1 v 3 h 1 v 4 h 1 v 3 h 1 v 3 h 1 v 4 h 1 v 3 h 1 v 4 h 1 v 3 h 1 v 3 h 1 v 4 h 1 v 3 h 1 v 4 h 1 v 4 h 1 v 3 h 1 v 4 h 1 v 4 h 1 v 3 h 1 v 4 h 1 v 3 h 1 v 4 h 1 v 4 h 1 v 3 h 1 v 4 h 1 v 4 h 1 v 4 h 1 v 4 h 1 v 3 h 1 v 4 h 1 v 4 h 1 v 4 h 1 v 4 h 1 v 4 h 1 v 3 h 1 v 4 h 1 v 4 h 1 v 4 h 1 v 4 h 1 v 4 h 1 v 5 h 1 v 4 h 1 v 4 h 1 v 4 h 1 v 4 h 1 v 4 h 1 v 4 h 1 v 4 h 1 v 4 h 1 v 4 h 1 v 4 h 1 v 5 h 1 v 4 h 1 v 4 h 1 v 4 h 1 v 5 h 1 v 4 h 1 v 4 h 1 v 4 h 1 v 5 h 1 v 4 h 1 v 2 h 1 v -3 h 1 v -10 h 1 v -9 h 1 v -9 h 1 v -10 h 1 v -9 h 1 v -9 h 1 v -9 h 1 v -9 h 1 v -9 h 1 v -9 h 1 v -8 h 1 v -9 h 1 v -8 h 1 v -9 h 1 v -8 h 1 v -8 h 1 v -8 h 1 v -9 h 1 v -7 h 1 v -8 h 1 v -8 h 1 v -7 h 1 v -8 h 1 v -7 h 1 v -7 h 1 v -7 h 1 v -7 h 1 v -7 h 1 v -7 h 1 v -6 h 1 v -7 h 1 v -6 h 1 v -6 h 1 v -6 h 1 v -6 h 1 v -6 h 1 v -6 h 1 v -5 h 1 v -6 h 1 v -5 h 1 v -5 h 1 v -6 h 1 v -5 h 1 v -4 h 1 v -5 h 1 v -5 h 1 v -4 h 1 v -5 h 1 v -4 h 1 v -5 h 1 v -4 h 1 v -4 h 1 v -4 h 1 v -4 h 1 v -4 h 1 v -4 h 4 v -1 h 5 v -1 h 6 v -1 h 5 v -1 h 5 v -1 h 6 v -1 h 5 v -1 h 6 v -1 h 6 v -1 h 5 v -1 h 6 v -1 h 6 v -1 h 6 v -1 h 6 v -1 h 6 v -1 h 6 v -1 h 7 v -1 h 6 v -1 h 6 v -1 h 7 v -1 h 7 v -1 h 6 v -1 h 7 v -1 h 7 v -1 h 7 v -1 h 7 v -1 h 7 v -1 h 7 v -1 h 7 v -1 h 8 v -1 h 7 v -1 h 8 v -1 h 7 v -1 h 8 v -1 h 7 v -1 h 8 v -1 h 7 v -1 h 8 v -1 h 8 v -1 h 8 v -1 h 8 v -1 h 8 v -1 h 8 v -1 h 8 v -1 h 8 v -1 h 9 v -1 h 8 v -1 h 8 v -1 h 9 v -1 h 8 v -1 h 5 v -1 h -3 v -1 h -6 v -1 h -5 v -1 h -6 v -1 h -6 v -1 h -6 v -1 h -6 v -1 h -6 v -1 h -6 v -1 h -5 v -1 h -6 v -1 h -5 v -1 h -5 v -1 h -6 v -1 h -5 v -1 h -5 v -1 h -5 v -1 h -5 v -1 h -5 v -1 h -4 v -1 h -5 v -1 h -5 v -1 h -5 v -1 h -4 v -1 h -5 v -1 h -4 v -1 h -4 v -1 h -4 v -1 h -4 v -1 h -4 v -1 h -4 v -1 h -5 v -1 h -4 v -1 h -3 v -1 h -4 v -1 h -4 v -1 h -3 v -1 h -4 v -1 h -3 v -1 h -4 v -1 h -3 v -1 h -4 v -1 h -3 v -1 h -3 v -1 h -4 v -1 h -3 v -1 h -3 v -1 h -3 v -1 h -3 v -1 h -3 v -1 h -3 v -1 h -3 v -1 h -3 v -1 h -3 v -1 h -3 v -1 h -2 v -1 h -3 v -1 h -3 v -1 h -2 v -1 h -3 v -1 h -3 v -1 h -2 v -1 h -3 v -1 h -3 v -1 h -2 v -1 h -3 v -1 h -2 v -1 h -3 v -1 h -2 v -1 h -2 v -1 h -3 v -1 h -2 v -1 h -2 v -1 h -3 v -1 h -2 v -1 h -2 v -1 h -3 v -1 h -2 v -1 h -2 v -1 h -3 v -3 h 1 v -2 h 1 v -2 h 1 v -2 h 1 v -2 h 1 v -2 h 1 v -2 h 1 v -2 h 1 v -2 h 1 v -2 h 1 v -2 h 1 v -2 h 1 v -2 h 1 v -1 h 1 v -2 h 1 v -2 h 1 v -2 h 1 v -2 h 1 v -2 h 1 v -1 h 1 v -2 h 1 v -2 h 1 v -2 h 1 v -2 h 1 v -2 h 1 v -2 h 1 v -1 h 1 v -2 h 1 v -2 h 1 v -2 h 1 v -1 h 1 v -2 h 1 v -2 h 1 v -2 h 1 v -1 h 1 v -2 h 1 v -2 h 1 v -2 h 1 v -1 h 1 v -2 h 1 v -2 h 1 v -2 h 1 v -1 h 1 v -2 h 1 v -2 h 1 v -1 h 1 v -2 h 1 v -2 h 1 v -1 h 1 v -2 h 1 v -2 h 1 v -1 h 1 v -2 h 1 v -2 h 1 v -2 h 1 v -1 h 1 v -2 h 1 v -2 h 1 v -1 h 1 v -2 h 1 v -2 h 1 v -1 h 1 v -2 h 1 v -1 h 1 v -2 h 1 v -2 h 1 v -1 h 1 v -2 h 1 v -1 h 1 v -2 h 1 v -2 h 1 v -1 h 1 v -2 h 1 v -2 h 1 v -1 h 1 v -2 h 1 v -1 h 1 v -2 h 1 v -2 h 1 v -1 h 1 v -2 h 1 v -1 h 1 v -2 h 1 v -1 h 1 v -2 h 1 v -2 h 1 v -1 h 1 v -2 h 1 v -1 h 1 v -2 h 1 v -1 h 1 v -2 h 1 v -1 h 1 v -2 h 1 v -1 h 1 v -2 h 1 v -2 h 1 v -1 h 1 v -2 h 1 v -1 h 1 v -2 h 1 v -1 h 1 v -2 h 1 v -1 h 1 v -2 h 1 v -1 h 1 v -2 h 1 v -1 h 1 v -2 h 1 v -1 h 1 v -2 h 1 v -1 h 1 v -2 h 1 v -1 h 1 v -2 h 1 v -1 h 1 v -2 h 1 v -1 h 1 v -2 h 1 v -1 h 1 v -2 h 1 v -1 h 1 v -2 h 1 v -1 h 1 v -2 h 1 v -1 h 1 v -2 h 1 v -1 h 1 v -2 h 1 v -1 h 1 v -2 h 1 v -1 h 1 v -1 h 1 v -2 h 1 v -1 h 1 v -2 h 1 v -1 h 1 v -2 h 1 v -1 h 1 v -2 h 1 v -1 h 1 v -2 h 1 v -1 h 1 v -1 h 1 v -2 h 1 v -1 h 1 v -2 h 1 v -1 h 1 v -2 h -4 v 1 h -4 v 1 h -4 v 1 h -4 v 1 h -4 v 1 h -4 v 1 h -4 v 1 h -4 v 1 h -4 v 1 h -4 v 1 h -4 v 1 h -4 v 1 h -3 v 1 h -4 v 1 h -3 v 1 h -3 v 1 h -3 v 1 h -3 v 1 h -3 v 1 h -4 v 1 h -3 v 1 h -3 v 1 h -3 v 1 h -3 v 1 h -4 v 1 h -3 v 1 h -3 v 1 h -3 v 1 h -2 v 1 h -3 v 1 h -3 v 1 h -3 v 1 h -2 v 1 h -3 v 1 h -3 v 1 h -2 v 1 h -3 v 1 h -3 v 1 h -2 v 1 h -3 v 1 h -3 v 1 h -2 v 1 h -3 v 1 h -2 v 1 h -3 v 1 h -2 v 1 h -2 v 1 h -3 v 1 h -2 v 1 h -2 v 1 h -3 v 1 h -2 v 1 h -2 v 1 h -3 v 1 h -2 v 1 h -2 v 1 h -3 v 1 h -2 v 1 h -2 v 1 h -3 v 1 h -2 v 1 h -2 v 1 h -2 v 1 h -2 v 1 h -2 v 1 h -2 v 1 h -2 v 1 h -2 v 1 h -2 v 1 h -2 v 1 h -2 v 1 h -2 v 1 h -3 v 1 h -2 v 1 h -2 v 1 h -2 v 1 h -2 v 1 h -2 v 1 h -2 v 1 h -1 v 1 h -2 v 1 h -2 v 1 h -2 v 1 h -2 v 1 h -2 v 1 h -2 v 1 h -2 v 1 h -1 v 1 h -2 v 1 h -2 v 1 h -2 v 1 h -2 v 1 h -2 v 1 h -2 v 1 h -1 v 1 h -2 v 1 h -2 v 1 h -2 v 1 h -1 v 1 h -2 v 1 h -2 v 1 h -1 v 1 h -2 v 1 h -2 v 1 h -2 v 1 h -1 v 1 h -2 v 1 h -2 v 1 h -1 v 1 h -2 v 1 h -2 v 1 h -2 v 1 h -1 v 1 h -2 v 1 h -2 v 1 h -1 v 1 h -2 v 1 h -1 v 1 h -2 v 1 h -1 v 1 h -2 v 1 h -2 v 1 h -1 v 1 h -2 v 1 h -1 v 1 h -2 v 1 h -2 v 1 h -1 v 1 h -2 v 1 h -1 v 1 h -2 v 1 h -1 v -1 h -1 v -1 h -1 v -1 h -1 v -1 h -1 v -1 h -1 v -1 h -2 v -1 h -1 v -1 h -1 v -1 h -1 v -1 h -1 v -1 h -1 v -1 h -1 v -1 h -1 v -1 h -2 v -1 h -1 v -1 h -1 v -1 h -1 v -1 h -1 v -1 h -1 v -1 h -1 v -1 h -1 v -1 h -2 v -1 h -1 v -1 h -1 v -1 h -1 v -1 h -1 v -1 h -1 v -1 h -1 v -1 h -1 v -1 h -1 v -1 h -2 v -1 h -1 v -1 h -1 v -1 h -1 v -1 h -1 v -1 h -1 v -1 h -1 v -1 h -1 v -1 h -1 v -1 h -1 v -1 h -1 v -1 h -2 v -1 h -1 v -1 h -1 v -1 h -1 v -1 h -1 v -1 h -1 v -1 h -1 v -1 h -1 v -1 h -1 v -1 h -1 v -1 h -1 v -1 h -1 v -1 h -2 v -1 h -1 v -1 h -1 v -1 h -1 v -1 h -1 v -1 h -1 v -1 h -1 v -1 h -1 v -1 h -1 v -1 h -1 v -1 h -1 v -1 h -1 v -1 h -1 v -1 h -1 v -1 h -2 v -1 h -1 v -1 h -1 v -1 h -1 v -1 h -1 v -1 h -1 v -1 h -1 v -1 h -1 v -1 h -1 v -1 h -1 v -1 h -1 v -1 h -1 v -1 h -1 v -1 h -1 v -1 h -1 v -1 h -1 v -1 h -2 v -1 h -1 v -1 h -1 v -1 h -1 v -1 h -1 v -1 h -1 v -1 h -1 v -1 h -1 v -1 h -1 v -1 h -1 v -1 h -1 v -1 h -1 v -1 h -1 v -1 h -1 v -1 h -1 v -1 h -1 v -1 h -1 v -1 h -1 v -1 h -1 v -1 h -1 v -1 h -2 v -1 h -1 v -1 h -1 v -1 h -1 v -1 h -1 v -1 h -1 v -1 h -1 v -1 h -1 v -1 h -1 v -1 h -1 v -1 h -1 v -1 h -1 v -1 h -1 v -1 h -1 v -1 h -1 v -1 h -1 v -1 h -1 v -1 h -1 v -1 h -1 v -1 h -1 v -1 h -1 v -1 h -1 v -1 h -1 v -1 h -1 v -1 h -2 v -1 h -1 v -1 h -1 v -1 h -1 v -1 h -1 v -1 h -1 v -1 h -1 v -1 h -1 v -1 h -1 v -1 h -1 v -1 h -1 v -1 h -1 v -1 h -1 v -1 h -1 v -1 h -1 v -1 h -1 v -1 h -1 v -1 h -1 v -1 h -1 v -1 h -1 v -1 h -1 v -1 h -1 v -1 h -1 v -1 h -1 v -1 h -1 v -1 h -1 v -1 h -1 v -1 h -1 v -1 h -1 v -1 h -1 v -1 h -1 v -1 h -1 v -1 h -1 v -1 h -1 v -1 h -2 v -1 h -1 v -1 h -1 v -1 h -1 v -1 h -1 v -1 h -1 v -1 h -1 v -1 h -1 v -1 h -1 v -1 h -1 v -1 h -1 v -1 h -1 v -1 h -1 v -1 h -1 v -1 h -1 v -1 h -1 v -1 h -1 v -1 h -1 v -1 h -1 v -1 h -1 v -1 h -1 v -1 h -1 v -1 h -1 v -1 h -1 v -1 h -1 v -1 h -1 v -1 h -1 v -1 h -1 v -1 h -1 v -1 h -1 v -1 h -1 v -1 h -1 v -1 h -1 v -1 h -1 v -1 h -1 v -1 h -1 v -1 h -1 v -1 h -1 v -1 h -1 v -1 h -1 v -1 h -1 v -1 h -1 v -1 h -1 v -1 h -1 v -1 h -1 v -1 h -1 v -1 h -1 v -1 h -1 v -1 h -1 v -1 h -1 v -1 h -1 v -1 h -1 v -1 h -1 v -1 h -1 v -1 h -1 v -1 h -1 v -1 h -1 v -1 h -1 v -1 h -1 v -1 h -1 v -1 h -1 v -1 h -1 v -1 h -1 v -1 h -1 v -1 h -1 v -1 h -1 v -1 h -1 v -1 h -1 v -1 h -1 v -1 h -1 v -1 h -1 v -1 h -1 v -1 h -1 v -1 h -1 v -1 h -2 v -1 h -1 v -1 h -1 v -1 h -1 v -1 h -1 v -1 h -1 v -1 h -1 v -1 h -1 v -1 h -1 v -1 h -1 v -1 h -1 v -1 h -1 v -1 h -1 v -1 h -1 v -1 h -1 v -1 h -1 v -1 h -1 v -1 h -1 v -1 h -1 v -1 h -1 v -1 h -1 v -1 h -1 v -1 h -1 v -1 h -1 v -1 h -1 v -1 h -1 v -1 h -1 v -1 h -1 v -1 h -1 v -1 h -1 v -1 h -1 v -1 h -1 v -1 h -1 v -1 h -1 v -1 h -1 v -1 h -1 v -1 h -1 v -1 h -1 v -1 h -1 v -1 h -1 v -1 h -1 v -1 h -1 v -1 h -1 v -1 h -1 v -1 h -1 v -1 h -1 v -1 h -1 v -1 h -1 v -2 h -1 v -1 h -1 v -1 h -1 v -1 h -1 v -1 h -1 v -1 h -1 v -1 h -1 v -1 h -1 v -1 h -1 v -1 h -1 v -1 h -1 v -1 h -1 v -1 h -1 v -1 h -1 v -1 h -1 v -1 h -1 v -1 h -1 v -1 h -1 v -1 h -1 v -1 h -1 v -1 h -1 v -1 h -1 v -1 h -1 v -1 h -1 v -1 h -1 v -1 h -1 v -1 h -1 v -1 h -1 v -1 h -1 v -1 h -1 v -1 h -1 v -1 h -1 v -1 h -1 v -1 h -1 v -1 h -1 v -1 h -1 v -1 h -1 v -1 h -1 v -1 h -1 v -1 h -1 v -1 h -1 v -1 h -1 v -1 h -1 v -1 h -1 v -1 h -1 v -1 h -1 v -1 h -1 v -1 h -1 v -1 h -1 v -1 h -1 v -1 h -1 v -1 h -1 v -1 h -1 v -1 h -1 v -1 h -1 v -1 h -1 v -1 h -1 v -1 h -1 v -1 h -1 v -1 h -1 v -1 h -1 v -1 h -1 v -1 h -1 v -1 h -1 v -1 h -1 v -1 h -1 v -1 h -1 v -1 h -1 v -1 h -1 v -1 h -1 v -1 h -1 v -1 h -1 v -1 h -1 v -1 h -1 v -1 h -1 v -1 h -1 v -1 h -1 v -1 h -1 v -1 h -1 v -2 h -1 v -1 h -1 v -1 h -1 v -1 h -1 v -1 h -1 v -1 h -1 v -1 h -1 v -1 h -1 v -1 h -1 v -1 h -1 v -1 h -1 v -1 h -1 v -1 h -1 v -1 h -1 v -1 h -1 v -1 h -1 v -1 h -1 v -1 h -1 v -1 h -1 v -1 h -1 v -1 h -1 v -1 h -1 v -1 h -1 v -1 h -1 v -1 h -1 v -1 h -1 v -1 h -1 v -1 h -1 v -1 h -1 v -1"
               style="fill:url(#linearGradient48);fill-opacity:1;fill-rule:nonzero;stroke:none"
               id="path54"
               inkscape:connector-curvature="0" /></g></g></g><path
         d="m 1693.24,814.75308 c -84.33,-128.48 -230.84,-181.27 -327.19,-117.91 -96.32,63.07 -106.03,218.61 -21.66,346.97002 84.52,128.54 230.84,181.33 327.25,118.01 96.31,-63.26 106,-218.77 21.6,-347.07002 m -24.22,368.96002 c -110.45,72.58 -278.45,12.04 -375.23,-135.25 -96.86,-147.38002 -85.68,-325.56002 24.78,-398.12002 110.47,-72.82 278.54,-12.129 375.28,135.15 96.76,147.44002 85.68,325.59002 -24.83,398.22002"
         style="fill:#ffffff;fill-opacity:1;fill-rule:nonzero;stroke:none"
         id="path56"
         inkscape:connector-curvature="0" /><path
         d="m 2309.88,634.77308 h -157.07 c -69.45,0.492 -119.68,18.109 -150.74,52.871 -31.03,34.769 -41.66,82.149 -31.82,142.309 l 59.69,364.98002 h 372.23 l -6.68,-41 h -237.52 c -12.11,-1.5 -21.95,-4.77 -29.45,-9.75 -7.54,-4.9 -13.66,-11.95 -18.38,-21.21 -4.77,-9.12 -8.5,-20.95 -11.35,-35.31 -2.89,-14.39 -5.94,-31.82 -9.3,-52.19 l -13.49,-82.69 h 203.22 l -5.55,-34.22002 h -203.28 l -18.36,-112.52 c -4.02,-24.8 -3.65,-45.43 1.37,-61.76 5.04,-16.38 12.75,-29.69 23.28,-39.839 10.53,-10.222 23.11,-17.269 37.91,-21.25 14.75,-3.992 29.79,-5.902 45.2,-5.902 h 157.05 l -6.96,-42.519"
         style="fill:#ffffff;fill-opacity:1;fill-rule:nonzero;stroke:none"
         id="path58"
         inkscape:connector-curvature="0" /><path
         d="m 2436.11,746.88308 c 1.27,-16.66 5.04,-29.958 11.39,-39.821 6.23,-10.02 15,-17.02 26.25,-21.27 11.21,-4.18 24.59,-6.098 40.04,-5.551 15.33,-0.547 29.73,1.231 43.34,5.141 13.57,4.043 25.68,10.973 36.52,20.992 10.76,9.809 20.06,23.299 27.83,40.099 7.72,16.87 13.58,37.71 17.7,62.6 l 32.73,200.39002 h 85.61 l -28.97,-177.29002 c -9.98,-60.6 -33.73,-108.32 -71.48,-143.361 -37.77,-35.039 -86.64,-52.59 -146.7,-52.59 -33.3,0 -60.9,4.59 -82.69,13.781 -21.78,9.18 -38.62,22.289 -50.53,39.219 -11.88,16.883 -19.18,37.311 -21.99,61.371 -2.78,24.14 -1.64,51.31 3.34,81.58 l 28.96,177.29002 h 85.68 l -32.85,-200.39002 c -4.04,-24.89 -5.41,-45.59 -4.18,-62.19"
         style="fill:#ffffff;fill-opacity:1;fill-rule:nonzero;stroke:none"
         id="path60"
         inkscape:connector-curvature="0" /><path
         d="m 3063.55,1010.1031 c 5.98,0 11.61,-0.19 17.02,-0.64 l -6.31,-38.85 c -5.9,1.05 -11.94,1.62 -18.3,1.89 -6.39,0.2 -12.7,0.34 -18.52,0.34 -15.43,0.54 -31.13,-1.31 -47.19,-5.55 -16.11,-4.18 -31.05,-11.33 -45.17,-21.27 -14.06,-9.9 -26.27,-23.16 -36.62,-39.82002 -10.49,-16.61 -17.62,-37.35 -21.74,-62.19 l -33.73,-206.291 h -85.59 l 28.81,176.481 c 9.94,60.55 36.41,108.38002 79.61,143.42002 43.26,35.04 100.31,52.48 171.29,52.48 h 16.44"
         style="fill:#ffffff;fill-opacity:1;fill-rule:nonzero;stroke:none"
         id="path62"
         inkscape:connector-curvature="0" /><path
         d="m 3134.39,746.88308 c 2.19,-16.66 7.13,-29.958 14.67,-39.821 7.54,-10.02 17.42,-17.02 29.69,-21.27 12.29,-4.18 26,-6.098 41.48,-5.551 15.38,-0.547 29.77,1.231 43.29,5.141 13.63,4.043 25.7,10.973 36.54,20.992 10.9,9.809 20.15,23.299 27.83,40.099 7.75,16.87 13.57,37.71 17.77,62.6 l 4.18,26.09 c 4.05,24.84 5,45.67 2.74,62.52 -2.13,16.88 -6.99,30.27002 -14.53,40.25002 -7.54,9.95 -17.56,16.8 -29.77,20.82 -12.34,4.05 -26.11,5.73 -41.62,5.24 -15.35,0.49 -29.75,-1.33 -43.4,-5.63 -13.51,-4.14 -25.86,-11.23 -36.54,-21.15 -10.76,-9.94 -20.1,-23.28002 -27.77,-39.94002 -7.68,-16.58 -13.58,-37.27 -17.56,-62.11 l -4.32,-26.09 c -3.98,-24.89 -4.94,-45.59 -2.68,-62.19 m 223.95,245.43002 c 21.25,-10.41 37.77,-24.24 49.92,-41.39 11.99,-17.07 20.02,-36.85002 23.87,-59.16002 3.77,-22.4 4.1,-45.7 1.15,-70.04 -5.14,-25.31 -13.16,-49.33 -24.06,-71.81 -10.9,-22.7 -25.16,-42.308 -42.79,-58.969 -17.62,-16.601 -38.68,-29.82 -63.42,-39.761 -24.77,-10.02 -53.5,-14.961 -86.27,-14.961 -34.14,0 -62.52,4.941 -85.02,14.961 -22.42,9.941 -39.98,23.429 -52.52,40.582 -12.62,17.148 -20.78,36.818 -24.61,59.178 -3.79,22.42 -4.2,45.98 -1.04,70.78 4.46,24.34 12.21,47.64 23.33,70.04 11.17,22.31 25.78,42.09002 43.94,59.16002 18.11,17.15 40.25,30.98 66.31,41.39 25.98,10.47 56.15,15.7 90.43,15.7 32.77,0 59.73,-5.23 80.78,-15.7"
         style="fill:#ffffff;fill-opacity:1;fill-rule:nonzero;stroke:none"
         id="path64"
         inkscape:connector-curvature="0" /><path
         d="M 3592.5,634.77308 3440,1195.6931 h 107.93 l 101.76,-438.79002 247.32,438.03002 h 55.14 L 3628.3,634.77308 h -35.8"
         style="fill:#ffffff;fill-opacity:1;fill-rule:nonzero;stroke:none"
         id="path66"
         inkscape:connector-curvature="0" /><path
         d="m 4229.43,833.62308 59.11,362.07002 h 85.64 l -62.95,-385.16002 c -3.91,-23.86 -3.55,-43.83 0.96,-59.94 4.61,-16.17 11.66,-29.22 21.13,-39.488 9.59,-10.161 20.84,-17.563 34,-21.883 13.11,-4.59 26.47,-7.071 39.77,-7.481 l -7.19,-43.937 c -63.71,1.371 -110.6,19.531 -140.37,54.289 -29.82,34.85 -39.9,82.02 -30.1,141.53"
         style="fill:#ffffff;fill-opacity:1;fill-rule:nonzero;stroke:none"
         id="path68"
         inkscape:connector-curvature="0" /><path
         d="m 4518.18,746.88308 c 2.27,-16.66 7.13,-29.958 14.73,-39.821 7.56,-10.02 17.42,-17.02 29.71,-21.27 12.26,-4.18 25.97,-6.098 41.48,-5.551 15.35,-0.547 29.69,1.231 43.4,5.141 13.44,4.043 25.7,10.973 36.48,20.992 10.77,9.809 19.95,23.299 27.76,40.099 7.69,16.87 13.59,37.71 17.64,62.6 l 4.31,26.09 c 3.97,24.84 4.94,45.67 2.74,62.52 -2.13,16.88 -7.05,30.27002 -14.67,40.25002 -7.48,9.95 -17.42,16.8 -29.63,20.82 -12.4,4.05 -26.11,5.73 -41.62,5.24 -15.35,0.49 -29.83,-1.33 -43.4,-5.63 -13.57,-4.14 -25.7,-11.23 -36.62,-21.15 -10.82,-9.94 -20.08,-23.28002 -27.76,-39.94002 -7.61,-16.58 -13.45,-37.27 -17.55,-62.11 l -4.18,-26.09 c -4.12,-24.89 -5.02,-45.59 -2.82,-62.19 m 224.01,245.43002 c 21.19,-10.41 37.79,-24.24 49.84,-41.39 12.21,-17.07 20.04,-36.85002 23.87,-59.16002 3.77,-22.4 4.18,-45.7 1.23,-70.04 -5.14,-25.31 -13.17,-49.33 -24.06,-71.81 -10.9,-22.7 -25.16,-42.308 -42.8,-58.969 -17.61,-16.601 -38.67,-29.82 -63.41,-39.761 -24.69,-10.02 -53.48,-14.961 -86.12,-14.961 -34.29,0 -62.75,4.941 -85.17,14.961 -22.48,9.941 -39.96,23.429 -52.52,40.582 -12.68,17.148 -20.84,36.818 -24.61,59.178 -3.77,22.42 -4.12,45.98 -1.04,70.78 4.4,24.34 12.27,47.64 23.32,70.04 11.17,22.31 25.71,42.09002 43.95,59.16002 18.24,17.15 40.25,30.98 66.31,41.39 25.97,10.47 56.23,15.7 90.37,15.7 32.85,0 59.72,-5.23 80.84,-15.7"
         style="fill:#ffffff;fill-opacity:1;fill-rule:nonzero;stroke:none"
         id="path70"
         inkscape:connector-curvature="0" /><path
         d="m 4104.02,844.83308 h -195.07 c 3.9,14.9 9.25,29.3 15.97,43.18 6.72,13.97 14.81,26.19 24.2,36.86002 9.47,10.7 20.37,19.33 32.58,26.13 12.26,6.68 25.84,10.02 40.8,10.02 h 1.5 c 27.23,0 48.07,-9.2 62.46,-27.64 14.4,-18.34002 20.24,-47.87002 17.56,-88.55002 m 78.25,45.84 c -4.81,22.03 -13.93,41.44002 -27.04,58.10002 -13.16,16.53 -30.09,29.79 -50.93,39.4 -20.71,9.71 -44.71,14.74 -71.86,15.35 -26.05,-1.02 -50.74,-6.5 -74.26,-16.39 -23.45,-9.94 -44.57,-23.28 -63.43,-39.94 -18.85,-16.58 -34.55,-35.82002 -47.04,-57.73002 -12.48,-21.78 -20.83,-45.12 -24.74,-70 -3.44,-26.84 -2.13,-51.39 3.83,-73.67 6.11,-22.35 15.84,-41.552 29.68,-57.739 13.72,-16.172 30.94,-28.731 51.57,-37.629 20.58,-8.992 44.1,-13.442 70.35,-13.442 0.14,0 0.21,0.059 0.35,0.059 v -0.059 c 0,0 94.96,-1.781 136.45,32.008 l 6.11,37.301 c -46.02,-30.5 -120.14,-30.578 -120.14,-30.578 -22.36,0 -40.25,4.039 -53.9,11.93 -13.58,7.949 -23.99,17.91 -31.25,29.769 -7.21,11.99 -11.74,25.09 -13.66,39.57 -1.85,14.39 -2.4,28.24 -1.72,41.66 h 277.02 c 0.43,2.99 1.17,6.79 2.26,11.56 1.04,4.69 1.66,8.3 2.07,10.82 4.92,24.28 5.06,47.5 0.28,69.65"
         style="fill:#ffffff;fill-opacity:1;fill-rule:nonzero;stroke:none"
         id="path72"
         inkscape:connector-curvature="0" /><path
         d="m 601.035,434.28408 25.098,0.078 11.972,56.289 22.657,0.063 -11.934,-56.352 30.957,0.063 -3.515,-19.203 -31.231,-0.059 -21.953,-109.57 c -1.191,-6.25 -1.777,-10.981 -1.641,-14.059 0.371,-11.25 6.368,-16.109 18.75,-16.062 3.047,0 6.133,0.363 9.571,0.691 l -3.496,-18.789 c -4.805,-0.691 -8.575,-1.019 -12.012,-1.019 -22.012,-0.082 -35.098,11.578 -35.762,32.418 -0.137,5.082 0.664,11.25 2.129,19.07 l 21.68,107.32 -24.727,-0.078 3.457,19.199"
         style="fill:#fddd04;fill-opacity:1;fill-rule:nonzero;stroke:none"
         id="path74"
         inkscape:connector-curvature="0" /><path
         d="m 729.434,504.09308 23.769,0.082 -16.094,-88.813 c 12.246,14.332 26.485,21.871 42.969,21.871 20.254,0 33.008,-12.21 33.672,-32.359 0.137,-4.449 -0.391,-10.633 -1.758,-18.789 l -23.144,-127.051 -23.653,-0.082 23.321,128.442 c 0.918,5.488 1.738,10.269 1.601,14.328 -0.332,10.961 -5.996,15.773 -17.344,15.773 -11.972,-0.082 -26.543,-7.621 -39.16,-22.293 l -24.843,-136.308 -23.692,-0.082 44.356,245.281"
         style="fill:#fddd04;fill-opacity:1;fill-rule:nonzero;stroke:none"
         id="path76"
         inkscape:connector-curvature="0" /><path
         d="m 941.25,363.11208 c 0.781,7.481 0.918,13.93 0.723,20.161 -0.801,24.199 -7.696,35.8 -23.457,35.718 -18.203,0 -31.368,-18.789 -40.489,-56.019 z m -71.172,-53.48 c 0.781,-22.828 8.711,-34.488 23.828,-34.488 14.043,0.058 26.387,12.808 36.231,37.718 l 22.148,-2.757 c -11.933,-36.192 -31.64,-54.571 -58.457,-54.653 -29.199,-0.051 -45.293,19.281 -46.562,57.27 -1.27,42.031 12.48,83.383 32.363,107.23 10.234,12.422 23.809,18.86 38.242,18.922 29.512,0 46.309,-19.473 47.52,-55.883 0.234,-9.308 -0.996,-22.609 -3.223,-40.039 l -89.043,-0.129 c -2.266,-14.672 -3.262,-26 -3.047,-33.191"
         style="fill:#fddd04;fill-opacity:1;fill-rule:nonzero;stroke:none"
         id="path78"
         inkscape:connector-curvature="0" /><path
         d="m 1125.8,504.77308 114.43,0.222 -4.04,-23.254 -89,-0.129 -15.53,-84.418 66.37,0.141 -3.83,-21.25 -66.35,-0.141 -16.89,-94.293 93.79,0.211 -4.11,-22.23 -119.23,-0.188 44.39,245.329"
         style="fill:#fddd04;fill-opacity:1;fill-rule:nonzero;stroke:none"
         id="path80"
         inkscape:connector-curvature="0" /><path
         d="m 1345.39,259.91308 -20.98,-0.058 3.83,20.23 c -15.66,-15.09 -29.51,-22.992 -46.03,-23.043 -20.61,0 -32.99,12.262 -33.71,32.441 -0.14,4.45 0.35,10.54 1.81,18.711 l 23.11,127.129 h 23.73 l -23.73,-128.711 c -1.12,-5.82 -1.37,-10.277 -1.23,-14.07 0.31,-10.617 5.99,-15.617 17.01,-15.617 12.34,0 26.5,7.476 39.45,22.148 l 24.9,136.309 23.7,0.07 -31.86,-175.539"
         style="fill:#fddd04;fill-opacity:1;fill-rule:nonzero;stroke:none"
         id="path82"
         inkscape:connector-curvature="0" /><path
         d="m 1431.89,435.59308 h 20.61 l -3.48,-20.43 c 12.25,15 24.38,22.481 39.52,22.559 2.42,0 4.78,-0.348 7.22,-0.68 l -4.72,-23.269 c -2.8,0.71 -5.49,0.71 -7.97,0.71 -14.73,0 -26.19,-8.171 -36.27,-25.308 l -23.03,-129.18 h -23.69 l 31.81,175.598"
         style="fill:#fddd04;fill-opacity:1;fill-rule:nonzero;stroke:none"
         id="path84"
         inkscape:connector-curvature="0" /><path
         d="m 1551.82,276.29208 c 12.03,0 23.38,9.262 30.78,26.352 12.48,29.058 18.32,60.468 17.56,84.058 -0.69,22.211 -8.91,33.461 -23.75,33.383 -14.42,0 -24.73,-11.23 -33.3,-33.863 -10.71,-28.321 -15.36,-56.367 -14.71,-77.477 0.72,-21.613 8.63,-32.5 23.42,-32.453 m -14.3,144.77 c 10.25,12.402 23.87,18.851 38.26,18.851 29.86,0.082 46.72,-20.101 47.93,-57.949 1.27,-38.949 -12.21,-80.711 -31.37,-105.242 -10.21,-13.039 -24.78,-20.231 -40.25,-20.231 -29.86,-0.078 -45.61,19.344 -46.88,57.66 -1.32,41.34 12.11,82.633 32.31,106.911"
         style="fill:#fddd04;fill-opacity:1;fill-rule:nonzero;stroke:none"
         id="path86"
         inkscape:connector-curvature="0" /><path
         d="m 1710.23,277.54208 c 10.67,0 20.06,6.231 27.58,18.52 12.48,19.8 21.66,54.371 20.57,88.441 -0.76,23.941 -9.75,36.289 -26.6,36.211 -16.51,0 -30.51,-13.031 -34.63,-35.242 l -16.62,-91.887 c 9.24,-10.98 19.04,-16.043 29.7,-16.043 m -27.46,158.461 h 19.69 l -1.27,-15.699 c 12.35,12.668 23.83,19.199 37.21,19.199 25.78,0 41.91,-21.121 43.18,-59.32 0.96,-30.18 -5.64,-60.141 -17.65,-84.41 -12.5,-25.301 -30,-37.969 -50.98,-37.969 -14.4,-0.082 -27.01,6.371 -35.63,18.359 l -13.47,-75.219 h -23.69 l 42.61,235.059"
         style="fill:#fddd04;fill-opacity:1;fill-rule:nonzero;stroke:none"
         id="path88"
         inkscape:connector-curvature="0" /><path
         d="m 1907.85,364.61208 c 0.76,7.539 0.94,13.993 0.69,20.161 -0.75,24.281 -7.64,35.859 -23.44,35.859 -18.19,-0.059 -31.35,-18.91 -40.49,-56.07 z m -71.17,-53.339 c 0.76,-22.911 8.71,-34.551 23.83,-34.489 14.06,0 26.4,12.699 36.21,37.641 l 22.19,-2.742 c -11.94,-36.211 -31.66,-54.719 -58.46,-54.719 -29.22,-0.063 -45.29,19.41 -46.56,57.32 -1.31,41.969 12.52,83.379 32.32,107.328 10.25,12.262 23.83,18.789 38.26,18.789 29.51,0.051 46.33,-19.339 47.52,-55.957 0.28,-9.203 -0.99,-22.562 -3.22,-39.902 l -89.04,-0.219 c -2.23,-14.672 -3.25,-25.98 -3.05,-33.05"
         style="fill:#fddd04;fill-opacity:1;fill-rule:nonzero;stroke:none"
         id="path90"
         inkscape:connector-curvature="0" /><path
         d="m 1985.31,297.84308 c 0.41,-13.66 7.17,-20.16 21.29,-20.16 13.36,0 26.92,6.91 39.14,20.902 l 9.98,55.406 c -46.79,-8.988 -71.27,-30.508 -70.41,-56.148 m 58.52,-22.149 c -14.08,-11.882 -28.01,-17.761 -42.11,-17.761 -23.03,-0.071 -38.97,14.871 -39.77,38.191 -1.15,38.199 31.62,65.211 96.9,78.379 2.28,11.93 3.12,20.082 2.91,24.879 -0.41,12.973 -9.57,21.543 -24.38,21.461 -15.08,0 -27.54,-10.352 -34.12,-29.352 l -20.17,7.75 c 10.82,26.332 27.96,39.364 51.7,39.364 29.92,0.078 49.29,-15.981 50.11,-41.954 0.2,-4.726 -1.19,-15.976 -4.04,-33.046 l -11.97,-66.661 c -1.47,-7.543 -3.28,-16.39 -2.95,-27.64 0.13,-2.731 0.21,-5.492 0.66,-8.219 l -22.4,-0.062 -0.37,14.671"
         style="fill:#fddd04;fill-opacity:1;fill-rule:nonzero;stroke:none"
         id="path92"
         inkscape:connector-curvature="0" /><path
         d="m 2148.59,436.76508 20.61,0.058 -3.46,-20.511 c 16.02,15.371 31.19,23.25 45.67,23.32 20.97,0 33.36,-11.93 34.08,-32.359 0.08,-4.532 -0.41,-10.7 -1.78,-18.872 l -23.14,-127.109 h -23.69 l 23.37,128.5 c 0.86,5.41 1.72,10.551 1.55,14.32 -0.28,10.563 -6.35,15.641 -17.25,15.641 -12.4,0 -25.92,-7.621 -39.22,-22.281 l -24.88,-136.309 h -23.69 l 31.83,175.602"
         style="fill:#fddd04;fill-opacity:1;fill-rule:nonzero;stroke:none"
         id="path94"
         inkscape:connector-curvature="0" /><path
         d="m 2458.44,390.47208 c -0.63,19.75 -8.93,31.062 -23.32,31 -11.04,0 -20.74,-7.129 -27.87,-21.129 -13.58,-27.418 -21.33,-63.641 -20.55,-88.602 0.76,-22.828 8.65,-34.136 23.81,-34.136 14.43,0.078 26.76,12.757 36.23,37.66 l 22.07,-2.68 c -10.18,-35.523 -31.54,-54.652 -58.38,-54.723 -29.18,-0.058 -45.33,19.411 -46.52,57.321 -1.31,42.031 12.48,83.379 32.32,107.25 10.22,12.34 23.83,18.922 38.26,18.922 28.46,0 45.61,-18.793 46.66,-51.5 0.08,-1.372 0.08,-2.813 0.14,-4.102 l -22.72,-0.078 c -0.07,1.719 -0.07,3.437 -0.13,4.797"
         style="fill:#fddd04;fill-opacity:1;fill-rule:nonzero;stroke:none"
         id="path96"
         inkscape:connector-curvature="0" /><path
         d="m 2538.42,437.37408 8.03,-122.25 c 0.05,-1.723 0.13,-3.383 0.23,-5.152 0.14,-5.41 0,-11.938 -0.45,-19.399 1.72,10.219 4.26,18.032 6.76,24.61 l 50.43,122.269 21.29,0.051 -82.05,-197.531 c -10.14,-24.547 -23.97,-35.258 -49.36,-35.258 -2.77,-0.063 -5.53,-0.063 -8.3,0.281 l 0.78,19.547 c 2.4,-0.359 4.81,-0.687 6.86,-0.687 17.93,0.058 28.84,12.679 37.89,39.687 l -13.09,173.77 20.98,0.062"
         style="fill:#fddd04;fill-opacity:1;fill-rule:nonzero;stroke:none"
         id="path98"
         inkscape:connector-curvature="0" /><path
         d="m 2732.4,390.94408 c -0.62,19.75 -8.92,31.079 -23.36,31 -10.97,0 -20.74,-7.191 -27.83,-21.25 -13.51,-27.293 -21.33,-63.582 -20.55,-88.461 0.77,-22.832 8.72,-34.14 23.81,-34.14 14.44,0.058 26.78,12.621 36.31,37.64 l 22.11,-2.679 c -10.29,-35.512 -31.64,-54.711 -58.5,-54.781 -29.18,-0.059 -45.31,19.41 -46.52,57.32 -1.33,42.031 12.48,83.379 32.33,107.308 10.25,12.282 23.82,18.864 38.26,18.864 28.45,0 45.6,-18.731 46.66,-51.5 0.08,-1.371 0.08,-2.742 0.13,-4.102 l -22.71,-0.078 c -0.08,1.777 -0.08,3.438 -0.14,4.859"
         style="fill:#fddd04;fill-opacity:1;fill-rule:nonzero;stroke:none"
         id="path100"
         inkscape:connector-curvature="0" /><path
         d="m 2823.57,507.52308 23.73,0.062 -44.43,-245.273 -23.67,-0.059 44.37,245.27"
         style="fill:#fddd04;fill-opacity:1;fill-rule:nonzero;stroke:none"
         id="path102"
         inkscape:connector-curvature="0" /><path
         d="m 2955.29,366.33508 c 0.76,7.539 0.9,13.988 0.69,20.156 -0.75,24.282 -7.68,35.864 -23.46,35.864 -18.22,-0.063 -31.39,-18.93 -40.51,-56.082 z m -71.17,-53.344 c 0.76,-22.968 8.71,-34.566 23.79,-34.488 14.06,0 26.41,12.621 36.21,37.582 l 22.15,-2.684 c -11.93,-36.207 -31.62,-54.718 -58.42,-54.777 -29.14,0 -45.25,19.469 -46.5,57.32 -1.29,42.028 12.42,83.438 32.3,107.368 10.22,12.203 23.79,18.863 38.19,18.863 29.55,0.058 46.36,-19.41 47.52,-56.012 0.27,-9.199 -0.96,-22.558 -3.15,-39.98 l -89,-0.141 c -2.27,-14.668 -3.36,-26 -3.09,-33.051"
         style="fill:#fddd04;fill-opacity:1;fill-rule:nonzero;stroke:none"
         id="path104"
         inkscape:connector-curvature="0" /><path
         d="m 3124.51,438.33508 20.65,0.066 -3.5,-20.558 c 12.21,15.082 24.34,22.609 39.49,22.691 2.4,0 4.89,-0.351 7.27,-0.699 l -4.73,-23.242 c -2.87,0.68 -5.62,0.68 -7.95,0.68 -14.8,0 -26.19,-8.282 -36.27,-25.348 l -23.1,-129.121 -23.73,-0.082 31.87,175.613"
         style="fill:#fddd04;fill-opacity:1;fill-rule:nonzero;stroke:none"
         id="path106"
         inkscape:connector-curvature="0" /><path
         d="m 3244.45,279.05408 c 12,0.058 23.44,9.258 30.78,26.398 12.41,28.93 18.25,60.473 17.56,83.992 -0.76,22.149 -8.98,33.457 -23.79,33.399 -14.47,0 -24.62,-11.309 -33.2,-33.871 -10.82,-28.321 -15.43,-56.367 -14.73,-77.5 0.61,-21.578 8.56,-32.418 23.38,-32.418 m -14.33,144.738 c 10.29,12.352 23.86,18.852 38.26,18.852 29.96,0.078 46.7,-20.082 47.93,-58.012 1.31,-38.859 -12.07,-80.617 -31.33,-105.168 -10.16,-13.109 -24.77,-20.242 -40.25,-20.242 -29.91,-0.047 -45.67,19.34 -46.92,57.601 -1.36,41.352 12.21,82.77 32.31,106.969"
         style="fill:#fddd04;fill-opacity:1;fill-rule:nonzero;stroke:none"
         id="path108"
         inkscape:connector-curvature="0" /><path
         d="m 3447.07,263.34308 -20.98,-0.07 3.83,20.171 c -15.62,-15.019 -29.55,-22.91 -46.07,-22.992 -20.57,0 -32.99,12.211 -33.67,32.391 -0.14,4.512 0.41,10.621 1.77,18.769 l 23.13,127.133 h 23.71 l -23.71,-128.773 c -1.17,-5.77 -1.39,-10.278 -1.25,-13.989 0.35,-10.621 6.03,-15.621 17.01,-15.621 12.34,0 26.54,7.461 39.49,22.2 l 24.9,136.25 23.66,0.062 -31.82,-175.531"
         style="fill:#fddd04;fill-opacity:1;fill-rule:nonzero;stroke:none"
         id="path110"
         inkscape:connector-curvature="0" /><path
         d="m 3512.62,438.95208 25.04,0.063 11.99,56.367 h 22.62 l -11.86,-56.367 30.86,0.078 -3.44,-19.141 -31.27,-0.058 -21.93,-109.653 c -1.17,-6.168 -1.72,-10.957 -1.72,-14.039 0.49,-11.25 6.45,-15.98 18.79,-15.98 3.09,0.062 6.17,0.332 9.61,0.742 l -3.5,-18.852 c -4.8,-0.679 -8.57,-1.027 -12.07,-1.027 -21.95,-0.062 -35.04,11.52 -35.72,32.359 -0.08,5.079 0.68,11.309 2.19,19.141 l 21.66,107.309 -24.75,-0.082 3.5,19.14"
         style="fill:#fddd04;fill-opacity:1;fill-rule:nonzero;stroke:none"
         id="path112"
         inkscape:connector-curvature="0" /><path
         d="m 3694.32,367.50308 c 0.76,7.539 0.97,14.051 0.76,20.16 -0.82,24.199 -7.76,35.86 -23.46,35.86 -18.22,-0.079 -31.39,-18.872 -40.58,-56.09 z m -71.1,-53.352 c 0.69,-22.898 8.58,-34.5 23.66,-34.418 14.19,0 26.4,12.622 36.26,37.579 l 22.15,-2.68 c -11.85,-36.27 -31.6,-54.719 -58.41,-54.777 -29.2,0 -45.26,19.386 -46.49,57.32 -1.37,41.957 12.4,83.297 32.23,107.308 10.27,12.282 23.86,18.79 38.32,18.79 29.55,0.07 46.29,-19.34 47.52,-55.879 0.27,-9.262 -1.02,-22.559 -3.28,-39.981 l -88.95,-0.14 c -2.32,-14.75 -3.28,-26 -3.01,-33.122"
         style="fill:#fddd04;fill-opacity:1;fill-rule:nonzero;stroke:none"
         id="path114"
         inkscape:connector-curvature="0" /><path
         d="m 3863.55,439.56208 20.65,0.07 -3.5,-20.559 c 15.98,15.43 31.19,23.301 45.73,23.379 20.91,0 33.39,-12 33.94,-32.5 0.14,-4.398 -0.27,-10.488 -1.72,-18.73 l -23.1,-127.188 h -23.79 l 23.51,128.438 c 0.82,5.461 1.64,10.621 1.51,14.39 -0.28,10.633 -6.37,15.7 -17.4,15.7 -12.29,0 -25.79,-7.61 -39.09,-22.278 l -24.82,-136.312 h -23.81 l 31.89,175.59"
         style="fill:#fddd04;fill-opacity:1;fill-rule:nonzero;stroke:none"
         id="path116"
         inkscape:connector-curvature="0" /><path
         d="m 4087.97,368.19408 c 0.76,7.457 0.9,13.981 0.7,20.149 -0.84,24.199 -7.69,35.859 -23.59,35.808 -18.17,0 -31.27,-18.867 -40.39,-56.097 z m -71.23,-53.421 c 0.74,-22.911 8.71,-34.489 23.79,-34.489 14.12,0.078 26.46,12.75 36.27,37.641 l 22.15,-2.742 c -11.94,-36.129 -31.68,-54.59 -58.48,-54.649 -29.16,-0.133 -45.27,19.34 -46.51,57.25 -1.36,42.028 12.49,83.379 32.37,107.321 10.21,12.269 23.81,18.789 38.2,18.847 29.55,0 46.43,-19.39 47.52,-55.961 0.33,-9.246 -0.96,-22.476 -3.16,-39.898 l -89.07,-0.141 c -2.2,-14.738 -3.3,-25.969 -3.08,-33.179"
         style="fill:#fddd04;fill-opacity:1;fill-rule:nonzero;stroke:none"
         id="path118"
         inkscape:connector-curvature="0" /><path
         d="m 4151.27,439.99508 25.1,0.047 11.99,56.371 h 22.56 l -11.8,-56.371 30.86,0.141 -3.55,-19.2 -31.22,-0.058 -21.93,-109.652 c -1.17,-6.168 -1.72,-10.969 -1.64,-13.981 0.41,-11.328 6.37,-16.109 18.77,-16.047 3.09,0 6.11,0.27 9.53,0.68 l -3.42,-18.711 c -4.8,-0.762 -8.57,-1.102 -12.13,-1.102 -21.87,-0.07 -34.98,11.532 -35.66,32.371 -0.14,5.079 0.68,11.309 2.13,19.2 l 21.74,107.242 -24.77,-0.082 3.44,19.152"
         style="fill:#fddd04;fill-opacity:1;fill-rule:nonzero;stroke:none"
         id="path120"
         inkscape:connector-curvature="0" /><path
         d="m 4248.22,440.18308 20.57,0.082 1.72,-116.512 c 0.27,-9.191 -0.14,-17.75 -0.96,-25.031 2.19,8.242 5,16.191 8.16,24 l 49.22,117.601 h 21.27 l 3.83,-116.781 c 0.27,-8.848 -0.14,-17.75 -1.64,-26.25 2.13,9.449 4.94,18.383 8.44,26.52 l 46.76,116.589 21.38,0.051 -71.72,-175.738 -18.84,-0.063 -4.12,127.192 c -0.2,6.859 0.21,15.289 1.5,25.242 -2.05,-8.5 -4.92,-16.742 -8.42,-25.023 l -54.32,-127.477 h -18.65 l -4.18,175.598"
         style="fill:#fddd04;fill-opacity:1;fill-rule:nonzero;stroke:none"
         id="path122"
         inkscape:connector-curvature="0" /><path
         d="m 4487.11,281.04208 c 12.01,0.063 23.38,9.18 30.72,26.332 12.56,29 18.38,60.469 17.56,84.059 -0.68,22.211 -8.98,33.539 -23.73,33.461 -14.39,0 -24.69,-11.309 -33.26,-33.871 -10.82,-28.399 -15.35,-56.372 -14.67,-77.559 0.68,-21.52 8.57,-32.422 23.38,-32.422 m -14.26,144.801 c 10.16,12.289 23.79,18.789 38.2,18.789 29.97,0.082 46.76,-20.02 47.86,-57.93 1.3,-38.937 -12.13,-80.64 -31.27,-105.328 -10.28,-12.949 -24.83,-20.152 -40.26,-20.152 -29.96,-0.059 -45.72,19.41 -46.95,57.59 -1.31,41.429 12.19,82.781 32.42,107.031"
         style="fill:#fddd04;fill-opacity:1;fill-rule:nonzero;stroke:none"
         id="path124"
         inkscape:connector-curvature="0" /><path
         d="m 4617.73,440.81208 20.65,0.05 -3.5,-20.64 c 12.21,15.101 24.42,22.64 39.5,22.703 2.46,0 4.86,-0.34 7.26,-0.692 l -4.73,-23.3 c -2.81,0.679 -5.62,0.679 -7.95,0.679 -14.82,0 -26.19,-8.218 -36.26,-25.308 l -23.05,-129.18 h -23.79 l 31.87,175.688"
         style="fill:#fddd04;fill-opacity:1;fill-rule:nonzero;stroke:none"
         id="path126"
         inkscape:connector-curvature="0" /><path
         d="m 4731.7,510.67508 23.73,0.078 -26.95,-145.238 65.27,75.57 24.36,0.059 -45.06,-52.032 19.47,-123.64 -23.05,-0.071 -14.31,103.473 -32.86,-37.582 -11.25,-65.949 -23.71,-0.078 44.36,245.41"
         style="fill:#fddd04;fill-opacity:1;fill-rule:nonzero;stroke:none"
         id="path128"
         inkscape:connector-curvature="0" /></g></g></svg>